# xmcd
#
# Track frame offsets:
#	150
#	25616
#	46064
#	92738
#	141024
#	172492
#
# Disc length: 3759 seconds
#
# Revision: 16
# Processed by: cddbd v1.5.2PL0 Copyright (c) Steve Scherf et al.
# Submitted via: EasyCDDAExtractor 10.2.0.1
#
DISCID=480ead06
DTITLE=Eric Clapton - Crossroads 2: Live in the Seventies [CD2)
DYEAR=1996
DGENRE=Blues
TTITLE0=Layla
TTITLE1=Further On Up The Road
TTITLE2=I Shot The Sheriff
TTITLE3=Badge
TTITLE4=Driftin' Blues
TTITLE5=Eyesight To The Blind-Why Does Love Got To Be So Sad
EXTD=YEAR: 1996
EXTT0=Providence Civic Center June 25, 1975
EXTT1=Providence Civic Center June 6, 1975
EXTT2=Nassau Coliseum June 28, 1975
EXTT3=Nassau Coliseum June 28, 1975
EXTT4=Providence Civic Center June 25, 1975
EXTT5=Providence Civic Center June 25, 1975
PLAYORDER=
